<svg fill="none" height="30" viewBox="0 0 31 30" width="31" xmlns="http://www.w3.org/2000/svg"><path clip-rule="evenodd" d="m1.87275 18.8234v-2.4191c.35235-.0883.599-.4062.599-.777s-.26426-.6886-.599-.7769v-3.7612c.33474-.1059.58138-.4061.58138-.7769 0-.44148-.36997-.8123-.81041-.8123s-.810407.37082-.810407.8123c0 .3884.264267.7063.616617.7946v3.7435c-.33474.0883-.598999.4061-.598999.7769s.246649.6887.598999.777v2.4368c-.33474.0883-.598999.4061-.598999.7769 0 .4415.369969.8123.810409.8123s.81041-.3708.81041-.8123c0-.3708-.24665-.6886-.599-.7946zm-.68708-8.5111c0-.2472.21141-.45914.45805-.45914.24665 0 .45806.21194.45806.45914s-.21141.4591-.45806.4591c-.24664 0-.45805-.2119-.45805-.4591zm.01761 5.315c0-.2472.21141-.4591.45806-.4591s.45806.2119.45806.4591-.21141.4591-.45806.4591-.45806-.2119-.45806-.4591zm.45806 4.4498c-.24665 0-.45806-.2119-.45806-.4591s.21141-.4591.45806-.4591.45806.2119.45806.4591-.19379.4591-.45806.4591zm4.52779-4.2908c-.31712.0529-.73994.0882-1.28609.0882-.02816 0-.05812-.0018-.08931-.0036-.06636-.004-.13827-.0084-.21019.0036h-1.55035v-.4061h2.36076c.81042 0 1.46227-.2119 1.93794-.6004.47568-.3884.72232-1.0594.72232-1.9777 0-1.6775-.81041-2.525-2.44884-2.525h-2.57218v-.40618h2.55456c1.03944 0 1.77938.26488 2.23744.79458.45805.5121.68708 1.2361.68708 2.1366 0 .8123-.19379 1.4833-.58138 1.9777-.38759.4945-.98659.7946-1.76176.9183zm4.24597 3.6199c.5637.6533 1.5503.9712 2.9245.9712.7047 0 1.3918-.1413 2.0084-.4062v-.4061c-.6519.2649-1.3037.4061-1.9556.4061-.828 0-1.4975-.1236-1.9908-.3531-.4933-.2296-.8456-.5827-1.057-1.0595s-.3348-1.0948-.3524-1.8188h5.8843v-1.3067c0-.5297-.1057-1.0241-.2995-1.4656-.2114-.4414-.5285-.7946-.9513-1.0595-.4229-.2648-1.0042-.4061-1.7089-.4061-1.2157 0-2.0789.3355-2.5898 1.0242-.51095.6886-.77521 1.6245-.77521 2.8429 0 1.3773.2995 2.4015.86331 3.0372zm5.021-3.0725h-5.4439c0-1.0772.2291-1.9071.6519-2.5075.4228-.618 1.1804-.9182 2.2727-.9182.8808 0 1.5151.2296 1.9203.7063.4052.4768.599 1.0948.599 1.8895zm2.2197 2.9842c.5638.7063 1.4799 1.0595 2.766 1.0595.4228 0 .7928-.0354 1.1452-.106.3523-.0706.6518-.1589.9337-.2825v-.4062c-.2819.106-.599.2119-.9337.2826-.3524.0706-.6871.1059-1.0219.1059-1.1803 0-2.026-.3002-2.5193-.8829s-.7399-1.4832-.7399-2.6663c0-1.2008.2995-2.0837.8809-2.6664.5813-.5827 1.4094-.8652 2.484-.8652.3524 0 .6695.0176.969.0883.2819.0529.5814.1589.8809.3001v-.4061c-.2643-.1236-.5462-.2119-.8104-.2825-.2819-.053-.6519-.0883-1.1099-.0883-1.1628 0-2.0789.3178-2.7484.9712-.6694.6533-1.0042 1.6422-1.0042 2.9665 0 1.2184.2643 2.172.828 2.8783zm9.0554 1.0595c-1.2156 0-2.0965-.3355-2.625-1.0065-.5286-.6711-.8104-1.6422-.8104-2.9313 0-1.289.2642-2.2602.8104-2.9312.5461-.671 1.4094-1.0065 2.625-1.0065s2.0789.3355 2.625 1.0065c.5462.671.8104 1.6422.8104 2.9312 0 1.2891-.2642 2.2602-.7928 2.9313-.5285.671-1.4094 1.0065-2.6426 1.0065zm0-.4062c1.1099 0 1.8851-.3002 2.3255-.8829.4581-.5827.6695-1.4656.6695-2.6487s-.229-2.066-.6695-2.6487c-.458-.5827-1.2332-.8829-2.3255-.8829s-1.8675.3002-2.3255.8829c-.4581.5827-.6871 1.4656-.6871 2.6487s.229 2.066.6694 2.6487c.4757.5827 1.2509.8829 2.3432.8829zm-18.79813-1.1478c.05285-.0176.08808-.0176.14094-.0176.45805 0 .82802.3531.81041.8122 0 .4415-.36997.8123-.81041.8123s-.81041-.3708-.81041-.8123c0-.2472.12332-.4767.29949-.618l-.86326-1.9953c-.08809-.2119-.19379-.4062-.2995-.5474.14094-.0177.2995-.053.44044-.106.08809.1413.1938.3355.28188.5474zm-.22903.5121c-.05286.0883-.08809.1766-.08809.2825 0 .2472.21141.4591.45806.4591.08808 0 .15855-.0353.22902-.0706.00881 0 .01322-.0044.01762-.0088.00441-.0044.00881-.0088.01762-.0088s.01321-.0045.01762-.0089c.0044-.0044.00881-.0088.01762-.0088.01761 0 .03523-.0177.05284-.0353h.00001c.07047-.0883.12332-.1943.12332-.3179 0-.2472-.21141-.4591-.45806-.4591h-.01761c-.15856 0-.28189.0707-.36997.1766z" fill="#2c39b3" fill-rule="evenodd"/></svg>