<svg width="45" height="44" viewBox="0 0 45 44" fill="none" xmlns="http://www.w3.org/2000/svg">
<circle cx="22.5" cy="22" r="21.5" fill="white" stroke="#E8E9FF"/>
<path fill-rule="evenodd" clip-rule="evenodd" d="M8.87275 25.8234V23.4043C9.2251 23.316 9.47175 22.9981 9.47175 22.6273C9.47175 22.2565 9.20749 21.9387 8.87275 21.8504V18.0892C9.20749 17.9833 9.45413 17.6831 9.45413 17.3123C9.45413 16.8708 9.08416 16.5 8.64372 16.5C8.20328 16.5 7.83331 16.8708 7.83331 17.3123C7.83331 17.7007 8.09758 18.0186 8.44993 18.1069V21.8504C8.11519 21.9387 7.85093 22.2565 7.85093 22.6273C7.85093 22.9981 8.09758 23.316 8.44993 23.4043V25.8411C8.11519 25.9294 7.85093 26.2472 7.85093 26.618C7.85093 27.0595 8.2209 27.4303 8.66134 27.4303C9.10178 27.4303 9.47175 27.0595 9.47175 26.618C9.47175 26.2472 9.2251 25.9294 8.87275 25.8234ZM8.18567 17.3123C8.18567 17.0651 8.39708 16.8532 8.64372 16.8532C8.89037 16.8532 9.10178 17.0651 9.10178 17.3123C9.10178 17.5595 8.89037 17.7714 8.64372 17.7714C8.39708 17.7714 8.18567 17.5595 8.18567 17.3123ZM8.20328 22.6273C8.20328 22.3801 8.41469 22.1682 8.66134 22.1682C8.90799 22.1682 9.1194 22.3801 9.1194 22.6273C9.1194 22.8745 8.90799 23.0864 8.66134 23.0864C8.41469 23.0864 8.20328 22.8745 8.20328 22.6273ZM8.66134 27.0771C8.41469 27.0771 8.20328 26.8652 8.20328 26.618C8.20328 26.3708 8.41469 26.1589 8.66134 26.1589C8.90799 26.1589 9.1194 26.3708 9.1194 26.618C9.1194 26.8652 8.92561 27.0771 8.66134 27.0771ZM13.1891 22.7863C12.872 22.8392 12.4492 22.8745 11.903 22.8745C11.8749 22.8745 11.8449 22.8727 11.8137 22.8709C11.7474 22.8669 11.6755 22.8625 11.6035 22.8745H10.0532V22.4684H12.414C13.2244 22.4684 13.8762 22.2565 14.3519 21.868C14.8276 21.4796 15.0742 20.8086 15.0742 19.8903C15.0742 18.2128 14.2638 17.3653 12.6254 17.3653H10.0532V16.9591H12.6077C13.6472 16.9591 14.3871 17.224 14.8452 17.7537C15.3032 18.2658 15.5323 18.9898 15.5323 19.8903C15.5323 20.7026 15.3385 21.3736 14.9509 21.868C14.5633 22.3625 13.9643 22.6626 13.1891 22.7863ZM17.4351 26.4062C17.9988 27.0595 18.9854 27.3774 20.3596 27.3774C21.0643 27.3774 21.7514 27.2361 22.368 26.9712V26.5651C21.7161 26.83 21.0643 26.9712 20.4124 26.9712C19.5844 26.9712 18.9149 26.8476 18.4216 26.6181C17.9283 26.3885 17.576 26.0354 17.3646 25.5586C17.1532 25.0818 17.0298 24.4638 17.0122 23.7398H22.8965V22.4331C22.8965 21.9034 22.7908 21.409 22.597 20.9675C22.3856 20.5261 22.0685 20.1729 21.6457 19.908C21.2228 19.6432 20.6415 19.5019 19.9368 19.5019C18.7211 19.5019 17.8579 19.8374 17.347 20.5261C16.8361 21.2147 16.5718 22.1506 16.5718 23.369C16.5718 24.7463 16.8713 25.7705 17.4351 26.4062ZM22.4561 23.3337H17.0122C17.0122 22.2565 17.2413 21.4266 17.6641 20.8262C18.0869 20.2082 18.8445 19.908 19.9368 19.908C20.8176 19.908 21.4519 20.1376 21.8571 20.6143C22.2623 21.0911 22.4561 21.7091 22.4561 22.5038V23.3337ZM24.6758 26.3179C25.2396 27.0242 26.1557 27.3774 27.4418 27.3774C27.8646 27.3774 28.2346 27.342 28.587 27.2714C28.9393 27.2008 29.2388 27.1125 29.5207 26.9889V26.5827C29.2388 26.6887 28.9217 26.7946 28.587 26.8653C28.2346 26.9359 27.8999 26.9712 27.5651 26.9712C26.3848 26.9712 25.5391 26.671 25.0458 26.0883C24.5525 25.5056 24.3059 24.6051 24.3059 23.422C24.3059 22.2212 24.6054 21.3383 25.1868 20.7556C25.7681 20.1729 26.5962 19.8904 27.6708 19.8904C28.0232 19.8904 28.3403 19.908 28.6398 19.9787C28.9217 20.0316 29.2212 20.1376 29.5207 20.2788V19.8727C29.2564 19.7491 28.9745 19.6608 28.7103 19.5902C28.4284 19.5372 28.0584 19.5019 27.6004 19.5019C26.4376 19.5019 25.5215 19.8197 24.852 20.4731C24.1826 21.1264 23.8478 22.1153 23.8478 23.4396C23.8478 24.658 24.1121 25.6116 24.6758 26.3179ZM33.7312 27.3774C32.5156 27.3774 31.6347 27.0419 31.1062 26.3709C30.5776 25.6998 30.2958 24.7287 30.2958 23.4396C30.2958 22.1506 30.56 21.1794 31.1062 20.5084C31.6523 19.8374 32.5156 19.5019 33.7312 19.5019C34.9468 19.5019 35.8101 19.8374 36.3562 20.5084C36.9024 21.1794 37.1666 22.1506 37.1666 23.4396C37.1666 24.7287 36.9024 25.6998 36.3738 26.3709C35.8453 27.0419 34.9644 27.3774 33.7312 27.3774ZM33.7312 26.9712C34.8411 26.9712 35.6163 26.671 36.0567 26.0883C36.5148 25.5056 36.7262 24.6227 36.7262 23.4396C36.7262 22.2565 36.4972 21.3736 36.0567 20.7909C35.5987 20.2082 34.8235 19.908 33.7312 19.908C32.6389 19.908 31.8637 20.2082 31.4057 20.7909C30.9476 21.3736 30.7186 22.2565 30.7186 23.4396C30.7186 24.6227 30.9476 25.5056 31.388 26.0883C31.8637 26.671 32.6389 26.9712 33.7312 26.9712ZM14.9331 25.8234C14.9859 25.8058 15.0212 25.8058 15.074 25.8058C15.5321 25.8058 15.902 26.1589 15.8844 26.618C15.8844 27.0595 15.5144 27.4303 15.074 27.4303C14.6336 27.4303 14.2636 27.0595 14.2636 26.618C14.2636 26.3708 14.3869 26.1413 14.5631 26L13.6998 24.0047C13.6117 23.7928 13.506 23.5985 13.4003 23.4573C13.5413 23.4396 13.6998 23.4043 13.8408 23.3513C13.9289 23.4926 14.0346 23.6868 14.1227 23.8987L14.9331 25.8234ZM14.704 26.3355C14.6512 26.4238 14.6159 26.5121 14.6159 26.618C14.6159 26.8652 14.8274 27.0771 15.074 27.0771C15.1621 27.0771 15.2326 27.0418 15.303 27.0065C15.3118 27.0065 15.3162 27.0021 15.3207 26.9977C15.3251 26.9933 15.3295 26.9889 15.3383 26.9889C15.3471 26.9889 15.3515 26.9844 15.3559 26.98C15.3603 26.9756 15.3647 26.9712 15.3735 26.9712C15.3911 26.9712 15.4087 26.9535 15.4264 26.9359L15.4264 26.9359C15.4968 26.8476 15.5497 26.7416 15.5497 26.618C15.5497 26.3708 15.3383 26.1589 15.0916 26.1589H15.074C14.9154 26.1589 14.7921 26.2296 14.704 26.3355Z" fill="#2C39B3"/>
</svg>
