<svg fill="none" height="18" viewBox="0 0 45 18" width="45" xmlns="http://www.w3.org/2000/svg"><g fill="#fff"><path clip-rule="evenodd" d="m2.52156 14.6478v-3.5412c.51578-.1292.87683-.5945.87683-1.1373 0-.54281-.38683-1.00808-.87683-1.13732v-5.50565c.49-.15509.85104-.59451.85104-1.13732 0-.6462-.54157-1.18901-1.1863-1.18901s-1.1863.54281-1.1863 1.18901c0 .56866.38684 1.03393.90262 1.16317v5.4798c-.48999.12924-.87683.59451-.87683 1.13732 0 .5428.36105 1.0081.87683 1.1373v3.5671c-.48999.1292-.87683.5945-.87683 1.1373 0 .6462.54157 1.189 1.1863 1.189s1.1863-.5428 1.1863-1.189c0-.5428-.36105-1.0081-.87683-1.1632zm-1.00578-12.45879c0-.36187.30947-.67205.67052-.67205s.67052.31018.67052.67205c0 .36188-.30947.67206-.67052.67206s-.67052-.31018-.67052-.67206zm.02579 7.78029c0-.36187.30947-.67205.67052-.67205s.67052.31018.67052.67205c0 .3619-.30947.6721-.67052.6721s-.67052-.3102-.67052-.6721zm.67052 6.5137c-.36105 0-.67052-.3101-.67052-.672s.30947-.6721.67052-.6721.67052.3102.67052.6721-.28368.672-.67052.672zm6.62791-6.2809c-.46421.0776-1.08315.1293-1.88261.1293-.04123 0-.08509-.0027-.13074-.0054-.09715-.0059-.20241-.0122-.30768.0054h-2.26944v-.59455h3.45574c1.18631 0 2.14051-.31018 2.83683-.87884.6963-.56866 1.0573-1.55089 1.0573-2.89499 0-2.45557-1.1863-3.69628-3.58466-3.69628h-3.76521v-.59451h3.73943c1.52156 0 2.60474.38772 3.27524 1.16317.6705.74959 1.0058 1.80936 1.0058 3.12762 0 1.18901-.2837 2.17124-.8511 2.89499-.5673.72375-1.44418 1.16319-2.5789 1.34409zm6.2153 5.2989c.8253.9564 2.2694 1.4217 4.281 1.4217 1.0316 0 2.0373-.2068 2.94-.5945v-.5946c-.9542.3878-1.9084.5946-2.8626.5946-1.2121 0-2.1921-.181-2.9142-.517s-1.2379-.853-1.5474-1.5509c-.3094-.6979-.4899-1.6026-.5157-2.6624h8.6135v-1.91271c0-.77545-.1547-1.49919-.4384-2.1454-.3094-.6462-.7736-1.16316-1.3926-1.55088-.6189-.38773-1.47-.59451-2.5015-.59451-1.7795 0-3.0432.49111-3.791 1.49919-.7479 1.00808-1.1348 2.37803-1.1348 4.16151 0 2.0162.4385 3.5154 1.2637 4.4459zm7.3499-4.4976h-7.9688c0-1.57669.3352-2.79156.9542-3.67039.6189-.90469 1.7278-1.3441 3.3268-1.3441 1.2894 0 2.2178.33602 2.811 1.03392.5931.6979.8768 1.60258.8768 2.76575zm3.2494 4.3684c.8252 1.0339 2.1663 1.5509 4.0489 1.5509.6189 0 1.1605-.0517 1.6763-.1551s.9542-.2327 1.3668-.4136v-.5945c-.4126.1551-.8768.3102-1.3668.4136-.5158.1034-1.0058.1551-1.4958.1551-1.7279 0-2.9657-.4395-3.6878-1.2924-.7221-.853-1.0832-2.1713-1.0832-3.9031 0-1.75769.4384-3.0501 1.2895-3.90308.851-.85299 2.0631-1.26656 3.6362-1.26656.5158 0 .98.02585 1.4184.12924.4127.07754.8511.23263 1.2895.43942v-.59451c-.3868-.18094-.7995-.31018-1.1863-.41357-.4126-.07755-.9542-.12924-1.6247-.12924-1.7021 0-3.0431.46526-4.0231 1.42165-.98.95638-1.47 2.40387-1.47 4.34245 0 1.7836.3868 3.1793 1.2121 4.2133zm13.2555 1.5509c-1.7795 0-3.069-.4912-3.8426-1.4734-.7737-.9822-1.1863-2.4039-1.1863-4.2908 0-1.88688.3868-3.30853 1.1863-4.29076.7994-.98223 2.0631-1.47334 3.8426-1.47334 1.7794 0 3.0431.49111 3.8425 1.47334.7995.98223 1.1863 2.40388 1.1863 4.29076 0 1.8869-.3868 3.3086-1.1605 4.2908-.7736.9822-2.0631 1.4734-3.8683 1.4734zm0-.5945c1.6247 0 2.7594-.4395 3.4041-1.2924.6705-.853.98-2.1454.98-3.8773 0-1.73179-.3352-3.0242-.98-3.87719-.6705-.85299-1.8052-1.2924-3.4041-1.2924-1.599 0-2.7337.43941-3.4042 1.2924s-1.0058 2.1454-1.0058 3.87719c0 1.7319.3353 3.0243.98 3.8773.6963.8529 1.831 1.2924 3.43 1.2924zm-27.5173-1.6804c.0774-.0258.129-.0258.2063-.0258.6706 0 1.2121.5169 1.1863 1.189 0 .6462-.5415 1.189-1.1863 1.189-.6447 0-1.1863-.5428-1.1863-1.189 0-.3619.1806-.6979.4384-.9047l-1.26362-2.9208c-.12895-.3102-.28368-.5945-.43842-.8013.20632-.0259.43842-.0776.64473-.1551.12895.2068.28371.4911.41261.8013zm-.3352.7496c-.0774.1293-.129.2585-.129.4136 0 .3619.3095.672.6705.672.129 0 .2321-.0517.3353-.1034.0129 0 .0193-.0064.0258-.0129.0064-.0064.0129-.0129.0258-.0129s.0193-.0065.0258-.0129c.0064-.0065.0129-.013.0257-.013.0258 0 .0516-.0258.0774-.0516.1032-.1293.1805-.2844.1805-.4653 0-.3619-.3094-.6721-.6705-.6721h-.0258c-.2321 0-.4126.1034-.5415.2585z" fill-rule="evenodd"/><path d="m2.52156 11.1066-.04861-.194-.15139.0379v.1561zm0 3.5412h-.2v.1487l.14241.0428zm0-5.81582h-.2v.15409l.14899.0393zm0-5.50565-.06035-.19068-.13965.0442v.14648zm-.61894.02585h.2v-.15607l-.15139-.03793zm0 5.4798.05101.19339.14899-.0393v-.15409zm0 2.27462h.2v-.1561l-.15139-.0379zm0 3.5671.05101.1933.14899-.0393v-.154zm6.93738-4.4716-.0315-.1975-.00146.0002zm-2.01335.1239.01203-.1997zm-.30768.0054v.2h.01659l.01637-.0028zm-2.26944 0h-.2v.2h.2zm0-.59455v-.2h-.2v.2zm6.29257-.87884-.1265-.15491zm-6.29257-6.59127h-.2v.2h.2zm0-.59451v-.2h-.2v.2zm7.01467 1.16317-.1513.13083.0022.00251zm.1547 6.02261-.1574-.12339zm3.6364 6.64299.1514-.1307-.0018-.002zm7.221.8272.0789.1837.1211-.052v-.1317zm0-.5946h.2v-.2971l-.2753.1119zm-7.3242-1.4733.1829-.0811zm-.5157-2.6624v-.2h-.205l.005.2049zm8.6135 0v.2h.2v-.2zm-.4384-4.05811.1833-.08043-.0029-.00595zm-1.3926-1.55088-.1062.16949zm-6.2925.90468.1606.11916zm-.49 4.10981h-.2v.2h.2zm7.9688 0v.2h.2v-.2zm-7.0146-3.67039.1635.11517.0015-.00224zm6.1378-.31018-.1524.12952zm4.1262 8.34897-.1563.1247zm7.092.9822.0803.1832.1197-.0525v-.1307zm0-.5945h.2v-.2888l-.2704.1016zm-1.3668.4136.0393.1961.002-.0004zm-4.9773-8.94348-.1416-.14126zm5.0546-1.13732-.0459.19486.009.0017zm1.2895.43942-.0853.18088.2853.13458v-.31546zm0-.59451h.2v-.12725l-.1153-.05391zm-1.1863-.41357.0516-.19322-.0072-.00195-.0075-.00139zm-5.6478 1.29241.1397.14313zm9.155 8.63325-.1571.1238zm0-8.58156-.1551-.12625zm7.6851 0-.1551.12625zm.0258 8.58156-.1571-.1237zm-.4642-.4135-.1572-.1237-.0023.0031zm0-7.75449.1596-.12062-.0023-.00298zm-6.8083 0-.1573-.1236zm-.0258 7.75449-.1597.1206.0048.0058zm-24.0873-.388-.1843.0776.0719.1708.1758-.0587zm1.3926 1.1632-.2-.0077v.0077zm-1.9342-.9047.1252.156.119-.0954-.0606-.14zm-1.26362-2.9208-.1847.0767.00114.0027zm-.43842-.8013-.02486-.1985-.34142.0428.20615.2755zm.64473-.1551.16971-.1058-.0867-.1391-.15337.0577zm.41261.8013-.1847.0767.0004.0009zm.8511 3.567-.1538-.1278-.0099.0118-.0079.0133zm.8768.9822v-.2h-.0473l-.0423.0212zm.1805-.1033.1416.1412.0078-.0078.0069-.0087zm-9.79334-5.1697v3.5412h.4v-3.5412zm.87683-1.1373c0 .4528-.30025.8368-.72544.9433l.09722.388c.60638-.1519 1.02822-.6984 1.02822-1.3313zm-.72784-.94393c.40588.10705.72784.49569.72784.94393h.4c0-.63738-.45171-1.17928-1.02582-1.3307zm-.14899-5.69904v5.50565h.4v-5.50565zm.85104-1.13732c0 .44804-.29709.81552-.71139.94664l.1207.38136c.5657-.17905.99069-.69041.99069-1.328zm-.9863-.98901c.53384 0 .9863.45284.9863.98901h.4c0-.75623-.63068-1.38901-1.3863-1.38901zm-.9863.98901c0-.53617.45246-.98901.9863-.98901v-.4c-.75561 0-1.3863.63278-1.3863 1.38901zm.75123.96917c-.42914-.10753-.75123-.49463-.75123-.96917h-.4c0 .66279.45159 1.20622 1.05401 1.35717zm.15139 5.6738v-5.4798h-.4v5.4798zm-.87683 1.13732c0-.44824.32197-.83688.72784-.94393l-.10202-.38677c-.57411.15142-1.025821.69332-1.025821 1.3307zm.72544.9433c-.42518-.1065-.72544-.4905-.72544-.9433h-.400001c0 .6329.421841 1.1794 1.028221 1.3313zm.15139 3.7611v-3.5671h-.4v3.5671zm-.87683 1.1373c0-.4483.32197-.8369.72784-.944l-.10202-.3867c-.57411.1514-1.025821.6933-1.025821 1.3307zm.9863.989c-.53384 0-.9863-.4528-.9863-.989h-.400001c0 .7562.630681 1.389 1.386301 1.389zm.9863-.989c0 .5362-.45246.989-.9863.989v.4c.75562 0 1.3863-.6328 1.3863-1.389zm-.73442-.9717c.43465.1307.73442.5206.73442.9717h.4c0-.6346-.42232-1.1752-1.01924-1.3547zm-.27767-13.52234c-.47193 0-.87052.40015-.87052.87205h.4c0-.25184.22036-.47205.47052-.47205zm.87052.87205c0-.4719-.39858-.87205-.87052-.87205v.4c.25016 0 .47052.22021.47052.47205zm-.87052.87206c.47194 0 .87052-.40016.87052-.87206h-.4c0 .25185-.22036.47206-.47052.47206zm-.87052-.87206c0 .4719.39859.87206.87052.87206v-.4c-.25016 0-.47052-.22021-.47052-.47206zm.89631 6.90824c-.47193 0-.87052.40015-.87052.87205h.4c0-.25185.22036-.47205.47052-.47205zm.87052.87205c0-.4719-.39858-.87205-.87052-.87205v.4c.25016 0 .47052.2202.47052.47205zm-.87052.8721c.47194 0 .87052-.4002.87052-.8721h-.4c0 .2518-.22036.4721-.47052.4721zm-.87052-.8721c0 .4719.39859.8721.87052.8721v-.4c-.25016 0-.47052-.2203-.47052-.4721zm0 5.8417c0 .4719.39859.872.87052.872v-.4c-.25016 0-.47052-.2202-.47052-.472zm.87052-.8721c-.47193 0-.87052.4002-.87052.8721h.4c0-.2519.22036-.4721.47052-.4721zm.87052.8721c0-.4719-.39858-.8721-.87052-.8721v.4c.25016 0 .47052.2202.47052.4721zm-.87052.872c.50271 0 .87052-.4052.87052-.872h-.4c0 .2569-.19956.472-.47052.472zm4.7453-6.1516c.8075 0 1.43786-.0522 1.91556-.132l-.06591-.3946c-.4507.0753-1.05822.1266-1.84965.1266zm-.14277-.0058c.04431.0027.09441.0058.14277.0058v-.4c-.03409 0-.07171-.0022-.11871-.0051zm-.26269.003c.07939-.0132.16229-.009.26269-.003l.02406-.3993c-.09389-.0056-.22152-.0141-.35266.0078zm-2.3024.0028h2.26944v-.4h-2.26944zm-.2-.79455v.59455h.4v-.59455zm3.65574-.2h-3.45574v.4h3.45574zm2.71033-.83375c-.65264.53298-1.55865.83375-2.71033.83375v.4c1.22093 0 2.22332-.31959 2.96333-.92394zm.9838-2.74008c0 1.3139-.353 2.22494-.9838 2.74008l.253.30981c.7618-.62217 1.1308-1.67558 1.1308-3.04989zm-3.38466-3.49628c1.16661 0 2.00206.30137 2.54796.86628.5471.56619.8367 1.43135.8367 2.63h.4c0-1.25693-.3035-2.2399-.9491-2.90796-.6468-.66934-1.60377-.98832-2.83556-.98832zm-3.76521 0h3.76521v-.4h-3.76521zm-.2-.79451v.59451h.4v-.59451zm3.93943-.2h-3.73943v.4h3.73943zm3.42654 1.23235c-.7236-.83682-1.87482-1.23235-3.42654-1.23235v.4c1.4914 0 2.50654.37992 3.12394 1.09398zm1.0545 3.25844c0-1.35065-.3437-2.46385-1.0568-3.26096l-.2981.26668c.628.70208.9549 1.70842.9549 2.99428zm-.8937 3.01838c.6027-.76881.8937-1.79902.8937-3.01838h-.4c0 1.15866-.2765 2.09292-.8085 2.7716zm-2.70481 1.4182c1.16771-.1862 2.09721-.64312 2.70481-1.4182l-.3148-.24678c-.5271.67241-1.35126 1.09431-2.45299 1.26998zm10.46481 6.3231c-1.9899 0-3.361-.4616-4.1296-1.3523l-.3028.2613c.8819 1.022 2.3991 1.491 4.4324 1.491zm2.861-.5783c-.877.3767-1.8559.5783-2.861.5783v.4c1.058 0 2.0907-.2121 3.0189-.6108zm-.121-.4108v.5946h.4v-.5946zm-2.6626.7946c.9836 0 1.9634-.2133 2.9379-.6093l-.1506-.3705c-.9339.3794-1.8626.5798-2.7873.5798zm-2.9986-.5357c.7576.3526 1.7694.5357 2.9986.5357v-.4c-1.195 0-2.1433-.1788-2.8298-.4983zm-1.6458-1.6511c.33.7442.8819 1.2957 1.6458 1.6511l.1688-.3626c-.6803-.3166-1.16-.799-1.4489-1.4507zm-.5329-2.7386c.0263 1.0779.2099 2.0102.5329 2.7386l.3657-.1622c-.296-.6673-.4733-1.5445-.4987-2.5861zm8.8135-.2049h-8.6135v.4h8.6135zm-.2-1.71271v1.91271h.4v-1.91271zm-.4215-2.065c.2722.62012.4215 1.31641.4215 2.065h.4c0-.80231-.1601-1.55351-.4552-2.22579zm-1.3157-1.46179c.5875.36802 1.0257.85644 1.3184 1.46778l.3608-.17277c-.3262-.68107-.8164-1.22657-1.4668-1.634zm-2.3953-.564c1.0075 0 1.818.20234 2.3953.564l.2124-.33899c-.6606-.41379-1.5521-.62501-2.6077-.62501zm-3.6304 1.41835c.6954-.93738 1.8846-1.41835 3.6304-1.41835v-.4c-1.8132 0-3.1513.50125-3.9517 1.58003zm-1.0954 4.04235c0-1.75589.3809-3.07929 1.0954-4.04235l-.3213-.23832c-.7813 1.0531-1.1741 2.4696-1.1741 4.28067zm1.2133 4.3132c-.7787-.878-1.2133-2.3194-1.2133-4.3132h-.4c0 2.0385.4423 3.5956 1.3141 4.5786zm-.7685-4.1649h7.9688v-.4h-7.9688zm.7906-3.98555c-.6499.92283-.9906 2.1823-.9906 3.78555h.4c0-1.55014.3297-2.72039.9177-3.55523zm3.4904-1.42894c-1.6309 0-2.8199.44889-3.4919 1.43117l.3301.22586c.5659-.82709 1.5948-1.25703 3.1618-1.25703zm2.9634 1.1044c-.6454-.75932-1.6415-1.1044-2.9634-1.1044v.4c1.2569 0 2.1176.32697 2.6586.96344zm.9244 2.89527c0-1.19674-.2926-2.15188-.9244-2.89527l-.3048.25904c.5545.65241.8292 1.50664.8292 2.63623zm0 1.21482v-1.21482h-.4v1.21482zm7.0983 5.7193c-1.8482 0-3.1192-.5067-3.8926-1.4757l-.3126.2495c.8771 1.0989 2.2881 1.6262 4.2052 1.6262zm1.637-.1512c-.5014.1005-1.0296.1512-1.637.1512v.4c.6305 0 1.1854-.0527 1.7156-.159zm1.3258-.4007c-.3964.1738-.8204.2994-1.3258.4007l.0786.3922c.5261-.1055.9789-.2385 1.4078-.4265zm-.1197-.4113v.5945h.4v-.5945zm-1.1255.6093c.5039-.1064.9786-.2653 1.3959-.4221l-.1408-.3744c-.408.1533-.8616.3046-1.3377.4051zm-1.5371.1594c.5045 0 1.0077-.0533 1.5351-.159l-.0786-.3922c-.5042.101-.981.1512-1.4565.1512zm-3.8405-1.3632c.7764.9171 2.0849 1.3632 3.8405 1.3632v-.4c-1.7002 0-2.8674-.4329-3.5352-1.2217zm-1.1305-4.0323c0 1.7535.3646 3.1275 1.1305 4.0323l.3053-.2585c-.6783-.8012-1.0358-2.0637-1.0358-3.7738zm1.3479-4.04434c-.9017.90374-1.3479 2.25594-1.3479 4.04434h.4c0-1.72698.4307-2.95959 1.2311-3.76182zm3.7778-1.3253c-1.6078 0-2.878.42339-3.7778 1.3253l.2832.28252c.8022-.80407 1.9562-1.20782 3.4946-1.20782zm1.4644.13458c-.461-.10871-.9434-.13458-1.4644-.13458v.4c.5107 0 .9567.02582 1.3725.1239zm1.3288.45319c-.4491-.21182-.904-.37357-1.3378-.45509l-.0739.39312c.3915.07356.8133.22199 1.2411.42374zm-.2853-.41362v.59451h.4v-.59451zm-1.0379-.22035c.3819.10207.7817.22775 1.1532.40151l.1694-.36232c-.4021-.18811-.8276-.32091-1.2194-.42563zm-1.5731-.12246c.6608 0 1.1897.05099 1.5878.1258l.0738-.39312c-.4271-.08028-.9814-.13268-1.6616-.13268zm-3.8834 1.36478c.9332-.91078 2.2188-1.36478 3.8834-1.36478v-.4c-1.7395 0-3.1361.47653-4.1628 1.47851zm-1.4097 4.19932c0-1.90742.4819-3.29394 1.4097-4.19932l-.2794-.28627c-1.0323 1.00738-1.5303 2.51585-1.5303 4.48559zm1.1684 4.0885c-.7874-.9865-1.1684-2.3322-1.1684-4.0885h-.4c0 1.8108.3927 3.2567 1.2558 4.338zm9.0995.3261c.8259 1.0486 2.1867 1.5496 3.9997 1.5496v-.4c-1.746 0-2.9642-.4813-3.6855-1.3971zm-1.2292-4.4146c0 1.9132.418 3.3848 1.2292 4.4146l.3142-.2475c-.7363-.9347-1.1434-2.3064-1.1434-4.1671zm1.2312-4.41701c-.8402 1.03224-1.2312 2.50685-1.2312 4.41701h.4c0-1.8636.3826-3.23229 1.1414-4.16451zm3.9977-1.54709c-1.8153 0-3.1472.5021-3.9977 1.54709l.3102.2525c.7484-.91946 1.9438-1.39959 3.6875-1.39959zm3.9977 1.54709c-.8506-1.04499-2.1825-1.54709-3.9977-1.54709v.4c1.7436 0 2.9391.48013 3.6874 1.39959zm1.2311 4.41701c0-1.91016-.391-3.38477-1.2311-4.41701l-.3103.2525c.7588.93222 1.1414 2.30091 1.1414 4.16451zm-1.2034 4.4146c.8123-1.0313 1.2034-2.5042 1.2034-4.4146h-.4c0 1.8635-.3825 3.2339-1.1176 4.1671zm-4.0254 1.5496c1.8381 0 3.1992-.5007 4.0254-1.5496l-.3142-.2475c-.7211.9155-1.9389 1.3971-3.7112 1.3971zm3.2446-2.2075c-.5912.7821-1.6509 1.213-3.2446 1.213v.4c1.6556 0 2.8654-.448 3.5637-1.3719zm.9395-3.7567c0 1.7152-.3079 2.953-.9372 3.7537l.3145.2472c.7116-.9054 1.0227-2.2524 1.0227-4.0009zm-.9395-3.75659c.6072.80342.9395 2.04507.9395 3.75659h.4c0-1.75207-.3382-3.09523-1.0204-3.99778zm-3.2446-1.213c1.5659 0 2.6289.42984 3.2469 1.216l.3145-.2472c-.7231-.91981-1.9295-1.3688-3.5614-1.3688zm-3.247 1.216c.618-.78616 1.681-1.216 3.247-1.216v-.4c-1.632 0-2.8384.44899-3.5615 1.3688zm-.963 3.75359c0-1.71188.3324-2.9514.963-3.75359l-.3145-.2472c-.7104.90379-1.0485 2.24908-1.0485 4.00079zm.9395 3.7567c-.6072-.8035-.9395-2.0451-.9395-3.7567h-.4c0 1.7521.3382 3.0953 1.0204 3.9978zm3.2705 1.213c-1.5646 0-2.6305-.4293-3.2751-1.2189l-.3098.2529c.748.9164 1.9516 1.366 3.5849 1.366zm-27.311-1.7062c-.0792 0-.1591-.0008-.2697.0361l.1268.3794c.0442-.0148.0674-.0155.1429-.0155zm1.3862 1.3967c.0305-.7952-.6121-1.3967-1.3862-1.3967v.4c.567 0 1.0075.4323.9865.9813zm-1.3862 1.3813c.7556 0 1.3863-.6328 1.3863-1.389h-.4c0 .5362-.4524.989-.9863.989zm-1.3863-1.389c0 .7562.6307 1.389 1.3863 1.389v-.4c-.5338 0-.9863-.4528-.9863-.989zm.5133-1.0607c-.3016.2418-.5133.6337-.5133 1.0607h.4c0-.2968.1494-.577.3636-.7487zm-1.32208-2.6854 1.26368 2.9208.3671-.1588-1.26366-2.9209zm-.41499-.7609c.14209.1899.28928.4585.41387.7582l.36936-.1535c-.13331-.3207-.29559-.6207-.46297-.8444zm.7345-.4621c-.18913.0711-.40556.1196-.59923.1438l.04973.3969c.21895-.0274.46672-.0823.69023-.1663zm.66767.9117c-.1337-.3216-.2937-.6157-.4276-.8303l-.33942.2116c.12403.1989.27348.4735.39762.7722zm1.1859 2.8166-1.1863-2.8174-.3686.1552 1.1863 2.8174zm-.4485 1.2408c0-.106.0338-.1993.1006-.3109l-.3432-.2054c-.088.147-.1574.3121-.1574.5163zm.4705.472c-.2501 0-.4705-.2202-.4705-.472h-.4c0 .4719.3986.872.8705.872zm.2457-.0822c-.1077.054-.1706.0822-.2457.0822v.4c.1828 0 .3263-.0751.4249-.1246zm-.0262.0247c-.0059.0058.0076-.009.028-.0213.0264-.0159.0571-.0246.0878-.0246v.4c.101 0 .1589-.0631.1674-.0716zm.1674-.0717c-.101 0-.1589.0632-.1674.0717l.2832.2825c.0058-.0059-.0076.0089-.0281.0212-.0264.0159-.0571.0246-.0877.0246zm-.1158.0458c-.0059.0059.0076-.0089.028-.0212.0264-.0159.0571-.0246.0878-.0246v.4c.101 0 .1589-.0632.1673-.0717zm.1673-.0717c-.101 0-.1588.0632-.1673.0717l.2831.2825c.0059-.0058-.0075.009-.028.0213-.0264.0159-.0571.0245-.0878.0245zm-.0642.0071c-.0068.0069-.011.011-.0147.0145-.0036.0034-.0042.0036-.0025.0024.0013-.001.0084-.0063.0205-.0116.0125-.0054.0336-.0124.0609-.0124v.4c.0783 0 .1346-.0379.1589-.0562.0265-.0199.0498-.0439.0601-.0542zm.1221-.324c0 .1208-.051.233-.1368.3405l.3126.2495c.1206-.151.2242-.3489.2242-.59zm-.4705-.4721c.2502 0 .4705.2202.4705.4721h.4c0-.4719-.3985-.8721-.8705-.8721zm-.0258 0h.0258v-.4h-.0258zm-.3878.1864c.096-.1155.2226-.1864.3878-.1864v-.4c-.2989 0-.5334.1359-.6953.3307z"/></g></svg>