<svg width="41" height="20" viewBox="0 0 41 20" fill="none" xmlns="http://www.w3.org/2000/svg">
<circle cx="20.5" cy="20" r="19.5" fill="white" stroke="#E8E9FF"/>
<path fill-rule="evenodd" clip-rule="evenodd" d="M20.4999 8.33319C13.0333 8.33319 7.16663 14.1999 7.16663 21.6666C7.16663 25.5777 8.76662 29.1333 11.2555 31.6222C12.1444 32.5111 13.7444 32.5111 14.8111 31.8C16.2333 30.5555 18.3666 29.8444 20.4999 29.8444C22.811 29.8444 24.5888 30.5555 26.1888 31.8C27.2555 32.6889 28.6777 32.5111 29.7444 31.4444C32.2333 28.9555 33.8333 25.5777 33.8333 21.6666C33.6555 14.3777 27.7888 8.33319 20.4999 8.33319ZM20.3222 28.6C16.2333 28.6 13.5666 25.5777 13.5666 21.8444C13.5666 18.111 16.2333 15.0888 20.3222 15.0888C24.411 15.0888 27.0777 18.111 27.0777 21.8444C27.0777 25.5777 24.411 28.6 20.3222 28.6Z" fill="#81B5A1"/>
</svg>
