<svg width="41" height="40" viewBox="0 0 41 40" fill="none" xmlns="http://www.w3.org/2000/svg">
<circle cx="20.5" cy="20" r="19.5" fill="white" stroke="#E8E9FF"/>
<path d="M20.81 21.9048C24.92 21.9048 28.2519 18.4936 28.2519 14.2857C28.2519 10.0778 24.92 6.66666 20.81 6.66666C16.7 6.66666 13.3682 10.0778 13.3682 14.2857C13.3682 18.4936 16.7 21.9048 20.81 21.9048Z" fill="#036C70"/>
<path d="M27.0116 28.2541C30.7792 28.2541 33.8333 25.1271 33.8333 21.2699C33.8333 17.4127 30.7792 14.2857 27.0116 14.2857C23.2441 14.2857 20.1899 17.4127 20.1899 21.2699C20.1899 25.1271 23.2441 28.2541 27.0116 28.2541Z" fill="#1A9BA1"/>
<path d="M21.7402 33.3335C24.6514 33.3335 27.0115 30.9172 27.0115 27.9366C27.0115 24.956 24.6514 22.5398 21.7402 22.5398C18.8289 22.5398 16.4689 24.956 16.4689 27.9366C16.4689 30.9172 18.8289 33.3335 21.7402 33.3335Z" fill="#37C6D0"/>
<path opacity="0.1" d="M22.0503 13.5429V27.0922C22.0472 27.563 21.7686 27.9859 21.3433 28.1652C21.2079 28.2238 21.0624 28.254 20.9154 28.2541H16.4751C16.4689 28.1461 16.4689 28.0445 16.4689 27.9366C16.4669 27.8306 16.471 27.7246 16.4813 27.6191C16.5948 25.5896 17.8161 23.7989 19.6379 22.9905V21.8096C15.5833 21.1518 12.8172 17.2533 13.4598 13.1021C13.4642 13.0733 13.4688 13.0446 13.4736 13.0159C13.5045 12.8018 13.548 12.5897 13.6038 12.381H20.9155C21.5412 12.3834 22.0479 12.9022 22.0503 13.5429Z" fill="black"/>
<path opacity="0.2" d="M20.2953 13.0159H13.4736C12.7845 17.1596 15.5068 21.0907 19.5541 21.7962C19.6767 21.8176 19.7998 21.8358 19.9232 21.8508C18.0007 22.7842 16.5998 25.435 16.4807 27.6191C16.4704 27.7246 16.4663 27.8306 16.4683 27.9366C16.4683 28.0445 16.4683 28.1461 16.4745 28.254C16.4857 28.4675 16.5127 28.6797 16.5551 28.889H20.2947C20.7545 28.8858 21.1676 28.6005 21.3427 28.1651C21.4 28.0265 21.4295 27.8775 21.4295 27.727V14.1778C21.4272 13.5373 20.9208 13.0187 20.2953 13.0159Z" fill="black"/>
<path opacity="0.2" d="M20.2952 13.0159H13.4735C12.7846 17.16 15.5073 21.0912 19.555 21.7966C19.6378 21.8111 19.7209 21.824 19.8041 21.8356C17.9436 22.8362 16.5979 25.4807 16.4813 27.6191H20.2952C20.9201 27.6143 21.4254 27.0969 21.4301 26.4572V14.1778C21.4277 13.5371 20.921 13.0183 20.2952 13.0159Z" fill="black"/>
<path opacity="0.2" d="M19.6751 13.0159H13.4736C12.823 16.9279 15.2173 20.6953 18.9744 21.6711C17.5518 23.3352 16.6792 25.417 16.4813 27.6191H19.6751C20.3009 27.6167 20.8076 27.0979 20.81 26.4572V14.1778C20.8097 13.5362 20.3018 13.0162 19.6751 13.0159Z" fill="black"/>
<path d="M8.30337 13.0159H19.6733C20.3011 13.0159 20.81 13.5369 20.81 14.1797V25.8204C20.81 26.4631 20.3011 26.9842 19.6733 26.9842H8.30337C7.67556 26.9842 7.16663 26.4631 7.16663 25.8204V14.1797C7.16663 13.5369 7.67556 13.0159 8.30337 13.0159Z" fill="url(#paint0_linear_1_2517)"/>
<path d="M12.2439 19.8578C11.9775 19.6769 11.755 19.436 11.5933 19.1537C11.4367 18.8585 11.3587 18.5263 11.367 18.1905C11.353 17.7358 11.5029 17.2917 11.7881 16.9429C12.0877 16.5936 12.475 16.3349 12.9081 16.1949C13.4016 16.0286 13.9185 15.9467 14.438 15.9524C15.1212 15.9268 15.8034 16.0246 16.4535 16.2413V17.7016C16.171 17.5264 15.8634 17.3978 15.5418 17.3206C15.193 17.233 14.835 17.1891 14.4758 17.1898C14.097 17.1756 13.7207 17.2572 13.38 17.4273C13.117 17.5434 12.9464 17.8084 12.9459 18.1016C12.9448 18.2795 13.0116 18.4508 13.1319 18.5791C13.2741 18.7303 13.4423 18.8534 13.6281 18.9422C13.8348 19.0476 14.1449 19.1878 14.5583 19.3626C14.6038 19.3773 14.6482 19.3956 14.691 19.4172C15.0979 19.58 15.4904 19.7782 15.8643 20.0096C16.1475 20.1883 16.3851 20.4333 16.5577 20.7245C16.7346 21.0545 16.8203 21.4277 16.8057 21.8039C16.8259 22.2707 16.6864 22.7301 16.4113 23.1029C16.1371 23.4457 15.7705 23.6983 15.357 23.8293C14.8708 23.9853 14.3633 24.0607 13.8538 24.0527C13.3967 24.0549 12.9402 24.0166 12.4895 23.9385C12.1089 23.8747 11.7375 23.763 11.3837 23.6058V22.0661C11.7219 22.3133 12.0997 22.4981 12.5 22.6121C12.899 22.7394 13.3138 22.8074 13.7316 22.814C14.1184 22.8391 14.5044 22.7552 14.8479 22.5715C15.0885 22.4325 15.2348 22.1692 15.2287 21.8864C15.2303 21.6896 15.1543 21.5005 15.0178 21.3619C14.8482 21.1914 14.6517 21.0513 14.4368 20.9473C14.1887 20.8203 13.8234 20.6529 13.3409 20.4451C12.9571 20.2871 12.5896 20.0904 12.2439 19.8578Z" fill="white"/>
<defs>
<linearGradient id="paint0_linear_1_2517" x1="9.53676" y1="12.1065" x2="18.7579" y2="27.7056" gradientUnits="userSpaceOnUse">
<stop stop-color="#058F92"/>
<stop offset="0.5" stop-color="#038489"/>
<stop offset="1" stop-color="#026D71"/>
</linearGradient>
</defs>
</svg>
