<svg width="41" height="40" viewBox="0 0 41 40" fill="none" xmlns="http://www.w3.org/2000/svg">
<circle cx="20.5" cy="20" r="19.5" fill="white" stroke="#E8E9FF"/>
<path d="M12.7885 23.5245C12.7885 25.0744 11.5368 26.327 9.98818 26.327C8.43952 26.327 7.18787 25.0744 7.18787 23.5245C7.18787 21.9746 8.43952 20.7219 9.98818 20.7219H12.7885V23.5245ZM14.1887 23.5245C14.1887 21.9746 15.4403 20.7219 16.989 20.7219C18.5376 20.7219 19.7893 21.9746 19.7893 23.5245V30.5309C19.7893 32.0808 18.5376 33.3334 16.989 33.3334C15.4403 33.3334 14.1887 32.0808 14.1887 30.5309V23.5245Z" fill="#E01E5A"/>
<path d="M16.9889 12.2718C15.4403 12.2718 14.1886 11.0191 14.1886 9.46925C14.1886 7.91935 15.4403 6.66669 16.9889 6.66669C18.5376 6.66669 19.7893 7.91935 19.7893 9.46925V12.2718H16.9889ZM16.9889 13.6943C18.5376 13.6943 19.7893 14.947 19.7893 16.4969C19.7893 18.0468 18.5376 19.2994 16.9889 19.2994H9.96694C8.41828 19.2994 7.16663 18.0468 7.16663 16.4969C7.16663 14.947 8.41828 13.6943 9.96694 13.6943H16.9889Z" fill="#36C5F0"/>
<path d="M28.2114 16.4969C28.2114 14.947 29.463 13.6943 31.0117 13.6943C32.5603 13.6943 33.812 14.947 33.812 16.4969C33.812 18.0468 32.5603 19.2994 31.0117 19.2994H28.2114V16.4969ZM26.8112 16.4969C26.8112 18.0468 25.5595 19.2994 24.0109 19.2994C22.4622 19.2994 21.2106 18.0468 21.2106 16.4969V9.46925C21.2106 7.91935 22.4622 6.66669 24.0109 6.66669C25.5595 6.66669 26.8112 7.91935 26.8112 9.46925V16.4969Z" fill="#2EB67D"/>
<path d="M24.0109 27.7283C25.5595 27.7283 26.8112 28.981 26.8112 30.5309C26.8112 32.0808 25.5595 33.3334 24.0109 33.3334C22.4622 33.3334 21.2106 32.0808 21.2106 30.5309V27.7283H24.0109ZM24.0109 26.327C22.4622 26.327 21.2106 25.0744 21.2106 23.5245C21.2106 21.9746 22.4622 20.7219 24.0109 20.7219H31.0329C32.5815 20.7219 33.8332 21.9746 33.8332 23.5245C33.8332 25.0744 32.5815 26.327 31.0329 26.327H24.0109Z" fill="#ECB22E"/>
</svg>
