<svg width="41" height="40" viewBox="0 0 41 40" fill="none" xmlns="http://www.w3.org/2000/svg">
<circle cx="20.5" cy="20" r="19.5" fill="white" stroke="#E8E9FF"/>
<g clip-path="url(#clip0_1_2483)">
<path d="M9.99296 20.5983C9.99296 20.7736 9.95588 20.9365 9.88174 21.0871C9.8076 21.2355 9.70255 21.3633 9.5707 21.4665C9.43683 21.5717 9.27825 21.6521 9.09486 21.7098C8.91156 21.7675 8.70972 21.7964 8.49136 21.7964C8.22972 21.7964 7.99497 21.7613 7.78907 21.6892C7.5831 21.6191 7.37508 21.4995 7.16699 21.3344L7.51104 20.7755C7.6758 20.9137 7.82404 21.0146 7.95803 21.0787C8.08985 21.1426 8.22579 21.1736 8.3659 21.1736C8.53685 21.1736 8.67278 21.1302 8.77792 21.0416C8.88297 20.9529 8.93239 20.8354 8.93239 20.6849C8.93239 20.6209 8.92209 20.5611 8.90356 20.5055C8.88502 20.4498 8.85001 20.392 8.80059 20.3322C8.75114 20.2745 8.68113 20.2085 8.59256 20.1405C8.50605 20.0724 8.39278 19.9858 8.25267 19.8847C8.14762 19.8105 8.0426 19.7321 7.94164 19.6537C7.84072 19.5733 7.7501 19.4887 7.66557 19.398C7.58319 19.3072 7.51729 19.2062 7.46579 19.0928C7.41635 18.9815 7.38959 18.8515 7.38959 18.7092C7.38959 18.5443 7.42461 18.3916 7.49257 18.2554C7.56052 18.1193 7.65528 18.0039 7.77475 17.907C7.8942 17.8101 8.03639 17.7359 8.20513 17.6823C8.37195 17.6287 8.55311 17.6019 8.75092 17.6019C8.95895 17.6019 9.15879 17.6287 9.35224 17.6844C9.54583 17.7401 9.72513 17.8205 9.89191 17.9277L9.58087 18.4309C9.36874 18.2824 9.14415 18.2062 8.90939 18.2062C8.76727 18.2062 8.64776 18.2433 8.55508 18.3175C8.4624 18.3917 8.41501 18.4845 8.41501 18.5979C8.41501 18.7052 8.45621 18.8021 8.5386 18.8867C8.62098 18.9733 8.76308 19.0908 8.96504 19.2476C9.16896 19.396 9.33794 19.528 9.46974 19.6393C9.60362 19.7506 9.70865 19.8578 9.7869 19.9568C9.86517 20.0558 9.91667 20.1548 9.94756 20.2578C9.97844 20.363 9.99296 20.4745 9.99296 20.5983ZM13.5252 19.656C13.5252 19.8107 13.5087 19.9778 13.4758 20.157C13.4449 20.3364 13.3893 20.5015 13.311 20.6541C13.2327 20.8066 13.1318 20.9325 13.0061 21.0294C12.8804 21.1283 12.7197 21.1778 12.5283 21.1778C12.207 21.1778 11.9536 21.05 11.7683 20.7922C11.5829 20.5365 11.4902 20.1839 11.4902 19.7365C11.4902 19.2766 11.5829 18.9138 11.7724 18.6436C11.9599 18.3734 12.2153 18.2394 12.5366 18.2394C12.8415 18.2394 13.0824 18.3673 13.2594 18.6189C13.4366 18.8724 13.5252 19.2189 13.5252 19.656ZM14.6415 19.6168C14.6415 19.3178 14.5982 19.0457 14.5138 18.8024C14.4273 18.5569 14.3078 18.3467 14.1492 18.1694C13.9906 17.9921 13.8051 17.8559 13.589 17.7569C13.3728 17.6579 13.1339 17.6085 12.8723 17.6085C12.5839 17.6085 12.3306 17.6641 12.1123 17.7714C11.8939 17.8807 11.69 18.0518 11.5046 18.2868L11.4984 17.7032H10.4707V23.701H11.4965V21.1677C11.5974 21.2852 11.6942 21.3842 11.7889 21.4645C11.8816 21.5449 11.9764 21.6109 12.0731 21.6604C12.1699 21.7099 12.2708 21.747 12.3778 21.7676C12.4849 21.7882 12.6003 21.7986 12.7218 21.7986C12.9937 21.7986 13.249 21.7429 13.4838 21.6357C13.7185 21.5264 13.9225 21.3738 14.0934 21.1758C14.2643 20.9777 14.3983 20.7469 14.4952 20.485C14.594 20.221 14.6415 19.9303 14.6415 19.6168ZM15.0987 21.7016H16.1532V15.8328H15.0987V21.7016ZM20.6506 21.7037V17.6993H19.5962V19.8541C19.5962 20.0459 19.588 20.1944 19.5715 20.2995C19.555 20.4047 19.5282 20.4975 19.4912 20.5841C19.3429 20.914 19.0689 21.0812 18.6715 21.0812C18.3605 21.0812 18.1443 20.9698 18.0206 20.745C17.9712 20.6605 17.9382 20.5635 17.9197 20.4563C17.9011 20.349 17.8908 20.1944 17.8908 19.9902V17.6995H16.8364V19.9749C16.8364 20.1296 16.8385 20.2615 16.8405 20.3666C16.8426 20.4718 16.8508 20.5687 16.8611 20.6512C16.8714 20.7337 16.8838 20.808 16.8982 20.872C16.9105 20.9359 16.9312 20.9978 16.9579 21.0555C17.0547 21.301 17.2093 21.4866 17.4255 21.6122C17.6417 21.738 17.9074 21.7999 18.2204 21.7999C18.5026 21.7999 18.7518 21.7504 18.966 21.6514C19.1802 21.5524 19.3883 21.3915 19.5901 21.1668L19.5921 21.703L20.6507 21.7051L20.6506 21.7037ZM25.1949 21.7016V19.4306C25.1949 19.2759 25.1928 19.144 25.1908 19.0347C25.1887 18.9255 25.1826 18.8306 25.1702 18.7502C25.1599 18.6697 25.1455 18.5996 25.1311 18.5398C25.1146 18.478 25.096 18.4182 25.0754 18.3604C24.9786 18.1213 24.8241 17.9357 24.6079 17.8056C24.3917 17.6756 24.1259 17.6098 23.8108 17.6098C23.5286 17.6098 23.2794 17.6592 23.0652 17.7582C22.851 17.8572 22.6429 18.0201 22.4411 18.2428L22.4391 17.7066H21.3783V21.7023H22.441V19.5453C22.441 19.3597 22.4472 19.2133 22.4616 19.1101C22.474 19.007 22.5008 18.9101 22.5379 18.8172C22.6058 18.6564 22.7129 18.5368 22.855 18.4544C22.9971 18.372 23.1661 18.3307 23.3636 18.3307C23.6747 18.3307 23.8909 18.442 24.0146 18.6669C24.062 18.7514 24.0949 18.8483 24.1134 18.9534C24.132 19.0586 24.1423 19.2153 24.1423 19.4175V21.6972L25.1947 21.6993L25.1949 21.7016ZM29.5577 21.4376L27.9514 19.4393L29.3086 17.9836L28.5094 17.6393L27.0965 19.2787H26.9853V15.8339H25.9226V21.7027H26.9853V19.5768L28.5753 21.7823L29.5576 21.4378L29.5577 21.4376ZM33.6648 20.0024V19.3486L30.4692 17.7442V18.4638L32.9457 19.6702L30.4692 20.8929V21.5961L33.6648 20.0024ZM30.7796 16.7062C30.584 16.7062 30.4253 16.867 30.4253 17.0651C30.4253 17.2672 30.584 17.426 30.7796 17.426C30.9774 17.426 31.1339 17.2672 31.1339 17.0651C31.1339 16.8651 30.9774 16.7062 30.7796 16.7062ZM30.7818 16.7619C30.9403 16.7619 31.0679 16.898 31.0679 17.067C31.0679 17.2361 30.9403 17.3722 30.7818 17.3702C30.6211 17.3702 30.4933 17.2362 30.4933 17.0651C30.4933 16.898 30.6211 16.7619 30.7818 16.7619ZM30.7138 17.1022H30.7569C30.8084 17.1022 30.8331 17.1208 30.8434 17.1723C30.8517 17.226 30.862 17.261 30.8703 17.2734H30.9383C30.9319 17.261 30.9217 17.2363 30.9136 17.1744C30.9053 17.1146 30.8825 17.0837 30.8456 17.0775V17.0734C30.8889 17.061 30.9239 17.028 30.9239 16.9764C30.9239 16.9393 30.9114 16.9105 30.8867 16.894C30.862 16.8754 30.8229 16.863 30.7632 16.863C30.7158 16.863 30.6828 16.8671 30.65 16.8733V17.2733H30.7138V17.1022ZM30.7138 16.9166C30.7241 16.9146 30.7385 16.9125 30.759 16.9125C30.8312 16.9125 30.8559 16.9476 30.8559 16.9826C30.8559 17.0321 30.8104 17.0507 30.759 17.0507H30.7138V16.9166Z" fill="#0C1724"/>
</g>
<defs>
<clipPath id="clip0_1_2483">
<rect width="26.6666" height="7.86889" fill="white" transform="translate(7.16663 15.8334)"/>
</clipPath>
</defs>
</svg>
