<svg width="41" height="40" viewBox="0 0 41 40" fill="none" xmlns="http://www.w3.org/2000/svg">
<circle cx="20.5" cy="20" r="19.5" fill="white" stroke="#E8E9FF"/>
<path fill-rule="evenodd" clip-rule="evenodd" d="M20.4999 6.66666C13.1362 6.66666 7.16663 12.6363 7.16663 20.0001C7.16663 27.3638 13.1362 33.3334 20.4999 33.3334C27.8637 33.3334 33.8333 27.3638 33.8333 20.0001C33.8333 12.6363 27.8637 6.66666 20.4999 6.66666ZM13.8764 14.3175C14.502 12.3242 16.3503 10.9678 18.4407 10.9678H23.0753C25.1657 10.9678 27.014 12.3242 27.6396 14.3175L29.3601 19.7993L27.6396 25.2811C27.014 27.2744 25.1657 28.6309 23.0753 28.6309H18.4407C16.3503 28.6309 14.502 27.2744 13.8764 25.2811L12.1559 19.7993L13.8764 14.3175ZM26.324 14.7299C25.8788 13.3111 24.5632 12.3457 23.0753 12.3457H18.4408C16.9529 12.3457 15.6374 13.3111 15.1921 14.7299L14.7748 16.0596C15.6206 15.3679 16.6883 14.9789 17.8039 14.9788L23.6996 14.979C24.8227 14.9791 25.8973 15.3733 26.7459 16.0738L26.324 14.7299ZM14.0217 19.1104L15.093 17.7011C15.7303 16.8627 16.7195 16.3669 17.7718 16.3569H23.6995C24.7637 16.357 25.7667 16.8543 26.4104 17.7012L27.4816 19.1104H14.0217ZM26.4104 21.8962L27.4794 20.4883H14.024L15.0929 21.896C15.7367 22.7439 16.7404 23.2418 17.8055 23.2418L23.6978 23.2419C24.7628 23.242 25.7665 22.744 26.4104 21.8962ZM18.4407 27.253C16.9529 27.253 15.6373 26.2875 15.192 24.8688L14.7742 23.5377C15.6205 24.2302 16.6891 24.6198 17.8055 24.6196L23.6977 24.6198C24.8217 24.6199 25.8971 24.2252 26.7461 23.5238L26.3239 24.8688C25.8787 26.2875 24.5631 27.253 23.0753 27.253H18.4407Z" fill="#8578E6"/>
</svg>
