<svg width="41" height="40" viewBox="0 0 41 40" fill="none" xmlns="http://www.w3.org/2000/svg">
<circle cx="20.5" cy="20" r="19.5" fill="white" stroke="#E8E9FF"/>
<g clip-path="url(#clip0_1_2415)">
<path d="M18.0428 16.4079H20.2082V21.7228V21.7721C21.4385 21.1323 23.1117 19.8036 23.1117 17.1953C23.1117 16.6048 23.6038 16.1127 24.1943 16.1127C24.7849 16.1127 25.277 16.6048 25.277 17.1953C25.277 21.8705 21.3892 23.8882 19.3224 24.4295C19.3224 24.4295 18.4858 24.6264 18.0428 24.6756V16.4079Z" fill="#004987"/>
<path d="M33.2985 20.9847C32.8064 27.8252 26.8025 32.9924 19.9621 32.4511C13.0724 31.959 7.95441 25.9551 8.44653 19.1146C8.98786 12.2249 14.9425 7.05766 21.8321 7.59899C23.3577 7.69742 24.7848 8.09111 26.1136 8.73087C26.2448 8.76368 26.3432 8.8293 26.4088 8.92772C26.8517 9.46905 26.8517 10.2564 26.3104 10.6994C25.9167 11.0438 25.3754 11.0931 24.9325 10.8962C24.9653 10.929 24.9981 10.9454 25.0309 10.9454C23.9974 10.4533 22.8164 10.158 21.5861 10.0596C16.1236 9.61669 11.35 13.7997 10.9071 19.2623C10.5134 24.774 14.6472 29.5968 20.1097 29.9905C25.6214 30.4334 30.395 26.2996 30.7887 20.7878C30.9855 18.5733 30.395 16.5064 29.3123 14.7347C29.3451 14.7676 29.3779 14.8004 29.4107 14.8332C29.8536 15.03 30.395 14.9808 30.8379 14.6363C31.2316 14.3903 31.4284 13.9474 31.4776 13.5044C32.8064 15.6206 33.4953 18.2288 33.2985 20.9847Z" fill="#004987"/>
<path d="M31.4284 13.4553C31.4284 13.8982 31.1824 14.3411 30.7887 14.6363C30.395 14.9316 29.8537 14.9808 29.3616 14.8332C29.3616 14.8004 29.3452 14.7676 29.3123 14.7348C29.2631 14.6363 29.2139 14.5871 29.1647 14.4887C29.1647 14.4887 29.1155 14.4395 29.1155 14.3903C28.8858 14.0622 28.6398 13.7341 28.3773 13.406C28.2789 13.3568 28.2297 13.3076 28.1805 13.2584C28.1313 13.2092 28.1313 13.16 28.082 13.1108C28.0164 13.0452 27.9672 12.9959 27.9344 12.9631C27.8688 12.8975 27.7868 12.8319 27.6884 12.7663V12.7171C27.5899 12.6186 27.4915 12.5694 27.3931 12.471C26.8354 11.9789 26.212 11.5524 25.523 11.1915C25.4246 11.1423 25.3262 11.0439 25.1786 10.9947C25.1293 10.9947 25.0801 10.9454 25.0309 10.9454C24.9981 10.9454 24.9653 10.929 24.9325 10.8962C25.3754 11.0931 25.9167 11.0439 26.3104 10.6994C26.8025 10.2565 26.8518 9.46908 26.4088 8.92774C26.3432 8.86213 26.2448 8.79651 26.1136 8.7309C26.2612 8.78011 26.4581 8.87853 26.6549 8.97696C26.7041 9.02617 26.8025 9.02617 26.8518 9.07538C27.1142 9.20661 27.3603 9.35425 27.5899 9.51829C28.2297 9.9612 28.8694 10.4041 29.4108 10.9454C29.4108 10.9947 29.4108 10.9947 29.46 10.9947C29.5584 11.0931 29.6568 11.1915 29.7553 11.2899C29.8045 11.3391 29.8537 11.3883 29.8537 11.4376C29.9029 11.4868 30.0013 11.536 30.0505 11.5852C30.0997 11.6836 30.1489 11.7328 30.2474 11.8313L30.2966 11.8805C30.2966 11.8805 30.313 11.8969 30.3458 11.9297C30.395 11.9789 30.395 12.0281 30.4442 12.0773C30.6411 12.2742 30.8215 12.5038 30.9855 12.7663C31.0348 12.8155 31.084 12.9139 31.1332 13.0123C31.1824 13.0616 31.1824 13.1108 31.2316 13.16C31.2972 13.2256 31.3464 13.2912 31.3792 13.3568C31.3792 13.406 31.4284 13.4553 31.4284 13.4553Z" fill="#6AAAE4"/>
</g>
<defs>
<clipPath id="clip0_1_2415">
<rect width="25.8333" height="25.0001" fill="white" transform="translate(7.78882 7.49969)"/>
</clipPath>
</defs>
</svg>
