<svg width="41" height="40" viewBox="0 0 41 40" fill="none" xmlns="http://www.w3.org/2000/svg">
<circle cx="20.5" cy="20" r="19.5" fill="white" stroke="#E8E9FF"/>
<path d="M30.467 19.985C30.467 22.0036 29.6651 23.9396 28.2377 25.3669C26.8104 26.7943 24.8744 27.5962 22.8558 27.5962V12.3754C23.8553 12.3752 24.845 12.5718 25.7684 12.9542C26.6918 13.3365 27.5309 13.897 28.2376 14.6036C28.9444 15.3103 29.5051 16.1492 29.8876 17.0726C30.2701 17.9959 30.467 18.9856 30.467 19.985Z" fill="#00CC66"/>
<path d="M15.2462 19.9851C15.2462 22.0035 16.0479 23.9392 17.4749 25.3665C18.902 26.7938 20.8375 27.5959 22.8558 27.5963V33.3335C19.3447 33.2953 15.9904 31.8737 13.521 29.3774C11.0516 26.881 9.66663 23.5114 9.66663 20.0001C9.66663 16.4887 11.0516 13.1191 13.521 10.6228C15.9904 8.12641 19.3447 6.70485 22.8558 6.66669V12.3755C20.8376 12.3755 18.9021 13.1772 17.475 14.6043C16.048 16.0314 15.2462 17.9669 15.2462 19.9851Z" fill="#00CC66"/>
</svg>
