<svg width="41" height="40" viewBox="0 0 41 40" fill="none" xmlns="http://www.w3.org/2000/svg">
<circle cx="20.5" cy="20" r="19.5" fill="white" stroke="#E8E9FF"/>
<path fill-rule="evenodd" clip-rule="evenodd" d="M28.8782 19.2969C28.9801 19.4728 29.0135 19.6729 29.0245 19.8978L29.039 20.1976V22.2942L29.0538 22.5943C29.0833 23.0845 29.4448 23.4469 29.9387 23.4777L30.2373 23.4925V20.1976L30.2521 19.8978C30.2644 19.6754 30.2974 19.4715 30.4009 19.2944C30.5064 19.1127 30.6578 18.962 30.8399 18.8573C31.0221 18.7527 31.2286 18.6978 31.4386 18.6982C31.6487 18.6986 31.855 18.7542 32.0367 18.8595C32.2185 18.9648 32.3694 19.1161 32.4742 19.2982C32.5761 19.474 32.6079 19.6779 32.6201 19.8978L32.6349 20.1967V22.2942L32.6497 22.5943C32.6805 23.087 33.0392 23.4494 33.5347 23.4777L33.8333 23.4925V19.8978C33.8333 19.2622 33.5808 18.6526 33.1314 18.203C32.6821 17.7534 32.0725 17.5008 31.4369 17.5005C31.0967 17.5001 30.7603 17.5724 30.4503 17.7124C30.1402 17.8525 29.8636 18.057 29.6389 18.3125C29.4142 18.0571 29.1375 17.8526 28.8275 17.7125C28.5175 17.5725 28.1812 17.5001 27.841 17.5002C27.3433 17.5002 26.8814 17.6512 26.4988 17.912C26.2654 17.6515 25.7432 17.5002 25.4433 17.5002V23.4925L25.7432 23.4777C26.2446 23.4447 26.6071 23.092 26.6266 22.5943L26.6426 22.2942V20.1976L26.6574 19.8978C26.67 19.6716 26.7015 19.4728 26.8037 19.2957C26.9093 19.1141 27.0606 18.9634 27.2426 18.8586C27.4246 18.7538 27.6309 18.6986 27.841 18.6985C28.0511 18.6986 28.2576 18.7539 28.4397 18.8589C28.6217 18.9639 28.773 19.115 28.8782 19.2969ZM8.36496 23.4781L8.66478 23.4925H13.1589L13.1441 23.1937C13.1036 22.701 12.7547 22.3411 12.2604 22.309L11.9606 22.2942H9.26442L12.8591 18.6982L12.8443 18.3997C12.821 17.9019 12.4574 17.5424 11.9606 17.515L11.6608 17.5015L7.16663 17.5002L7.18141 17.8C7.22074 18.288 7.57467 18.6554 8.06483 18.6837L8.36496 18.6985H11.0611L7.46645 22.2945L7.48123 22.5943C7.5108 23.0883 7.86725 23.446 8.36496 23.4777V23.4781ZM24.267 18.3773C24.5453 18.6555 24.766 18.9858 24.9166 19.3494C25.0673 19.7129 25.1448 20.1026 25.1448 20.496C25.1448 20.8895 25.0673 21.2792 24.9166 21.6427C24.766 22.0063 24.5453 22.3366 24.267 22.6148C23.7048 23.1765 22.9426 23.4921 22.1478 23.4921C21.3531 23.4921 20.5909 23.1765 20.0287 22.6148C18.8586 21.4447 18.8586 19.5473 20.0287 18.3773C20.3067 18.0992 20.6368 17.8786 21 17.728C21.3633 17.5775 21.7527 17.4999 22.146 17.4999C22.5398 17.4996 22.9299 17.577 23.2939 17.7276C23.6578 17.8782 23.9885 18.0991 24.267 18.3776V18.3773ZM23.4192 19.2258C23.7562 19.5631 23.9455 20.0204 23.9455 20.4971C23.9455 20.9739 23.7562 21.4312 23.4192 21.7685C23.0819 22.1055 22.6246 22.2948 22.1478 22.2948C21.6711 22.2948 21.2138 22.1055 20.8765 21.7685C20.5395 21.4312 20.3502 20.9739 20.3502 20.4971C20.3502 20.0204 20.5395 19.5631 20.8765 19.2258C21.2138 18.8888 21.6711 18.6995 22.1478 18.6995C22.6246 18.6995 23.0819 18.8888 23.4192 19.2258ZM15.8576 17.4999C16.2509 17.5 16.6403 17.5776 17.0036 17.7282C17.3669 17.8788 17.6969 18.0995 17.9749 18.3776C19.1452 19.5473 19.1452 21.4451 17.9749 22.6148C17.4127 23.1765 16.6505 23.4921 15.8557 23.4921C15.061 23.4921 14.2987 23.1765 13.7365 22.6148C12.5665 21.4447 12.5665 19.5473 13.7365 18.3773C14.0146 18.0992 14.3446 17.8786 14.7079 17.728C15.0712 17.5775 15.4606 17.4999 15.8538 17.4999H15.8576ZM17.1271 19.2252C17.4642 19.5625 17.6535 20.0198 17.6535 20.4967C17.6535 20.9735 17.4642 21.4309 17.1271 21.7682C16.7898 22.1052 16.3325 22.2945 15.8557 22.2945C15.3789 22.2945 14.9217 22.1052 14.5844 21.7682C14.2474 21.4309 14.0581 20.9736 14.0581 20.4968C14.0581 20.02 14.2474 19.5628 14.5844 19.2255C14.9217 18.8885 15.3789 18.6992 15.8557 18.6992C16.3325 18.6992 16.7898 18.8885 17.1271 19.2255V19.2252Z" fill="#2D8CFF"/>
</svg>
